<?xml version="1.0" encoding="UTF-8" standalone="no"?>
<svg
   width="44.967476"
   height="48.062851"
   viewBox="0 0 11.897645 12.716629"
   version="1.1"
   id="svg1"
   xml:space="preserve"
   xmlns="http://www.w3.org/2000/svg"
   xmlns:svg="http://www.w3.org/2000/svg"><defs
     id="defs1"><rect
       x="147.44962"
       y="279.88672"
       width="13.959665"
       height="14.651828"
       id="rect1" /><rect
       x="147.44962"
       y="279.88672"
       width="13.959665"
       height="14.651828"
       id="rect5" /><rect
       x="147.44962"
       y="279.88672"
       width="13.959665"
       height="14.651828"
       id="rect9" /><rect
       x="147.44962"
       y="279.88672"
       width="13.959665"
       height="14.651828"
       id="rect10" /><rect
       x="147.44962"
       y="279.88672"
       width="168.75122"
       height="47.909214"
       id="rect11" /><rect
       x="147.44962"
       y="279.88672"
       width="101.73574"
       height="12.636305"
       id="rect13" /></defs><g
     id="layer1"
     transform="translate(-0.40117773)"><g
       id="g1"
       transform="matrix(0.28674333,0,0,0.28674333,-5.0775776,-21.227561)"><g
         id="g26"><path
           style="fill:#103157;fill-opacity:1;stroke:#103157;stroke-width:0.264583px;stroke-linecap:butt;stroke-linejoin:miter;stroke-opacity:1"
           d="m 27.772211,97.531779 -4.145075,-0.04504 -1.367867,8.113631 6.274157,1.22197 0.536596,-1.4865 2.391841,-0.51167 z"
           id="path25" /><path
           style="fill:#103157;fill-opacity:1;stroke:#103157;stroke-width:0.264583px;stroke-linecap:butt;stroke-linejoin:miter;stroke-opacity:1"
           d="m 30.893112,107.14723 -2.896281,1.16161 1.07319,-2.973 1.82309,1.81139"
           id="path12" /><path
           style="fill:#ffffff;stroke:#ffffff;stroke-width:0.276465px;stroke-linecap:butt;stroke-linejoin:miter;stroke-opacity:1"
           d="m 21.534715,105.59851 10.096119,-0.77248 -2.624076,0.50921 z"
           id="path26" /></g><g
         id="g34"
         transform="matrix(-1,0,0,1,80.322791,0.26818585)"><path
           style="fill:#103157;fill-opacity:1;stroke:#103157;stroke-width:0.264583px;stroke-linecap:butt;stroke-linejoin:miter;stroke-opacity:1"
           d="m 28.605425,97.531779 -4.978289,-0.04504 -1.367867,8.113631 6.274157,1.22197 0.536596,-1.4865 3.973722,-1.22458 c -1.201893,-1.8948 -2.740218,-4.436312 -4.438319,-6.579481 z"
           id="path32" /><path
           style="fill:#103157;fill-opacity:1;stroke:#103157;stroke-width:0.264583px;stroke-linecap:butt;stroke-linejoin:miter;stroke-opacity:1"
           d="m 30.893112,107.14723 -2.896281,1.16161 1.07319,-2.973 1.82309,1.81139"
           id="path33" /><path
           style="fill:#ffffff;stroke:#ffffff;stroke-width:0.276465px;stroke-linecap:butt;stroke-linejoin:miter;stroke-opacity:1"
           d="m 21.534715,105.59851 10.096119,-0.77248 -2.624076,0.50921 z"
           id="path34" /></g><text
         xml:space="preserve"
         transform="matrix(0.17327327,0,0,0.36657941,13.567009,-29.38591)"
         id="text1"
         style="font-style:normal;font-variant:normal;font-weight:bold;font-stretch:normal;font-size:12px;line-height:1.25;font-family:sans-serif;-inkscape-font-specification:'sans-serif Bold';white-space:pre;shape-inside:url(#rect1);display:inline;fill:#4fc690;fill-opacity:1"><tspan
           x="147.44922"
           y="290.83468"
           id="tspan1">N</tspan></text><path
         style="fill:none;fill-opacity:1;stroke:#4fc690;stroke-width:0.264583px;stroke-linecap:butt;stroke-linejoin:miter;stroke-opacity:1"
         d="m 39.987676,77.514168 -2.27275,4.365333 h 4.56197 z"
         id="path1" /><path
         style="fill:#4fc690;fill-opacity:1;stroke:#4fc690;stroke-width:0.264583px;stroke-linecap:butt;stroke-linejoin:miter;stroke-opacity:1"
         d="m 39.987676,77.514168 0.0082,4.365331 h -2.280983 z"
         id="path2" /><text
         xml:space="preserve"
         transform="matrix(0.17327327,0,0,0.36657941,13.558437,11.706309)"
         id="text4"
         style="font-style:normal;font-variant:normal;font-weight:bold;font-stretch:normal;font-size:12px;line-height:1.25;font-family:sans-serif;-inkscape-font-specification:'sans-serif Bold';white-space:pre;shape-inside:url(#rect5);display:inline;fill:#4fc690;fill-opacity:1"><tspan
           x="147.44922"
           y="290.83468"
           id="tspan2">S</tspan></text><path
         style="fill:none;fill-opacity:1;stroke:#4fc690;stroke-width:0.264583px;stroke-linecap:butt;stroke-linejoin:miter;stroke-opacity:1"
         d="m 39.855748,114.89675 -2.27275,-4.36533 h 4.56197 z"
         id="path4" /><path
         style="fill:#4fc690;fill-opacity:1;stroke:#4fc690;stroke-width:0.264583px;stroke-linecap:butt;stroke-linejoin:miter;stroke-opacity:1"
         d="m 39.855748,114.89675 0.0082,-4.36533 h -2.280983 z"
         id="path5" /><path
         style="fill:none;fill-opacity:1;stroke:#4fc690;stroke-width:0.264583px;stroke-linecap:butt;stroke-linejoin:miter;stroke-opacity:1"
         d="m 21.44447,96.342133 4.365333,-2.27275 v 4.56197 z"
         id="path6" /><path
         style="fill:#4fc690;fill-opacity:1;stroke:#4fc690;stroke-width:0.264583px;stroke-linecap:butt;stroke-linejoin:miter;stroke-opacity:1"
         d="m 21.44447,96.342133 4.365331,0.0082 V 94.06935 Z"
         id="path7" /><path
         style="fill:none;fill-opacity:1;stroke:#4fc690;stroke-width:0.264583px;stroke-linecap:butt;stroke-linejoin:miter;stroke-opacity:1"
         d="m 59.32063,96.640532 -4.365333,-2.27275 v 4.56197 z"
         id="path8" /><path
         style="fill:#4fc690;fill-opacity:1;stroke:#4fc690;stroke-width:0.264583px;stroke-linecap:butt;stroke-linejoin:miter;stroke-opacity:1"
         d="m 59.32063,96.640532 -4.365331,0.0082 v -2.280983 z"
         id="path9" /><text
         xml:space="preserve"
         transform="matrix(0.17327327,0,0,0.36657941,-6.546754,-8.664159)"
         id="text9"
         style="font-style:normal;font-variant:normal;font-weight:bold;font-stretch:normal;font-size:12px;line-height:1.25;font-family:sans-serif;-inkscape-font-specification:'sans-serif Bold';white-space:pre;shape-inside:url(#rect9);display:inline;fill:#4fc690;fill-opacity:1"><tspan
           x="147.44922"
           y="290.83468"
           id="tspan3">O</tspan></text><text
         xml:space="preserve"
         transform="matrix(0.17327327,0,0,-0.36657941,33.763783,201.79615)"
         id="text10"
         style="font-style:normal;font-variant:normal;font-weight:bold;font-stretch:normal;font-size:12px;line-height:1.25;font-family:sans-serif;-inkscape-font-specification:'sans-serif Bold';white-space:pre;shape-inside:url(#rect10);display:inline;fill:#4fc690;fill-opacity:1"><tspan
           x="147.44922"
           y="290.83468"
           id="tspan4">E</tspan></text><ellipse
         style="fill:none;fill-opacity:0.996078;fill-rule:evenodd;stroke:#103157;stroke-width:0.283002;stroke-linejoin:bevel;stroke-opacity:1"
         id="path10"
         cx="40.313046"
         cy="96.20546"
         rx="14.469054"
         ry="14.335097" /><path
         id="ellipse10"
         style="fill:#113257;fill-opacity:1;fill-rule:evenodd;stroke:#113257;stroke-width:0.654213;stroke-linejoin:bevel;stroke-opacity:1"
         d="m 29.442647,90.451326 a 11.888349,11.778284 0 0 0 -1.34307,5.43171 11.888349,11.778284 0 0 0 11.888163,11.778094 11.888349,11.778284 0 0 0 11.888163,-11.778094 11.888349,11.778284 0 0 0 -0.848527,-4.367692 l -0.09973,0.03876 -21.461739,-1.101225 z" /><text
         xml:space="preserve"
         transform="matrix(0.18678211,0,0,0.39515891,1.4179662,-18.238099)"
         id="text11"
         style="font-style:normal;font-variant:normal;font-weight:bold;font-stretch:normal;font-size:22.396px;line-height:1.25;font-family:sans-serif;-inkscape-font-specification:'sans-serif Bold';white-space:pre;shape-inside:url(#rect11);display:inline;fill:#4fc690;fill-opacity:1"><tspan
           x="147.44922"
           y="300.31927"
           id="tspan5">ECOSIUM</tspan></text><path
         style="fill:#103157;fill-opacity:1;stroke:#103157;stroke-width:0.264583px;stroke-linecap:butt;stroke-linejoin:miter;stroke-opacity:1"
         d="m 29.137086,87.10079 -1.161611,-2.896283 2.972999,1.073185 -1.811388,1.823098"
         id="path3" /><path
         style="fill:#103157;fill-opacity:1;stroke:#103157;stroke-width:0.264583px;stroke-linecap:butt;stroke-linejoin:miter;stroke-opacity:1"
         d="m 51.256187,86.792206 1.161611,-2.896283 -2.972999,1.073185 1.811388,1.823098"
         id="path11" /><text
         xml:space="preserve"
         transform="matrix(0.18678211,0,0,0.39515891,8.8271714,-9.5488061)"
         id="text13"
         style="font-style:normal;font-variant:normal;font-weight:bold;font-stretch:normal;font-size:10.3881px;line-height:1.25;font-family:sans-serif;-inkscape-font-specification:'sans-serif Bold';white-space:pre;shape-inside:url(#rect13);display:inline;fill:#4fc690;fill-opacity:1"><tspan
           x="147.44922"
           y="289.3641"
           id="tspan6">EVENT</tspan></text><path
         style="fill:#363636;fill-opacity:1;stroke:#4a4a4a;stroke-width:0.264583px;stroke-linecap:butt;stroke-linejoin:miter;stroke-opacity:1"
         d="m 29.465719,90.45286 1.722867,-0.943856 1.217133,0.393274 1.730404,-1.258475 0.786546,0.07865 0.638175,-0.629237 1.406847,0.786545 2.250419,-1.994318 0.910307,0.308584 0.850662,-0.988523 5.033899,4.011387 0.786545,-0.786548 2.718303,1.179822 1.110583,-1.101166 0.57594,1.878531 z"
         id="path31" /><ellipse
         style="display:inline;fill:none;fill-opacity:0.996078;fill-rule:evenodd;stroke:#103157;stroke-width:0.75;stroke-linejoin:bevel;stroke-opacity:1"
         id="ellipse32"
         cx="40.234879"
         cy="96.172867"
         rx="13.456168"
         ry="13.290098" /></g></g></svg>
